<?xml version="1.0" encoding="UTF-8" standalone="no"?>
<svg width="450px" height="148px" viewBox="0 0 450 148" version="1.1" xmlns="http://www.w3.org/2000/svg" xmlns:xlink="http://www.w3.org/1999/xlink">
    <!-- Generator: Sketch 3.8.3 (29802) - http://www.bohemiancoding.com/sketch -->
    <title>Artboard</title>
    <desc>Created with Sketch.</desc>
    <defs></defs>
    <g id="Page-1" stroke="none" stroke-width="1" fill="none" fill-rule="evenodd">
        <g id="Artboard">
            <g id="Group-148">
                <path d="M308.6352,42.9664 C312.0862,42.9664 314.0942,40.3944 314.4082,37.8214 C314.7212,35.1234 313.4042,32.8014 310.0792,32.8014 L303.4902,32.8014 L302.0472,42.9664 L308.6352,42.9664 Z M302.6742,52.6294 L300.6672,52.6294 L298.7212,66.7474 L287.3642,66.7474 L293.5752,22.3224 L311.3342,22.3224 C320.4942,22.3224 327.0202,27.2164 325.7652,37.6334 C324.6362,45.8534 321.1222,48.6144 315.0362,51.4994 L325.7022,66.7474 L311.7102,66.7474 L302.6742,52.6294 Z" id="Fill-124" fill="#FFFFFF"></path>
                <polygon id="Fill-126" fill="#FFFFFF" points="342.8309 39.5157 360.8399 39.5157 359.4589 49.4927 341.4509 49.4927 340.5089 56.1437 360.0859 56.1437 358.6429 66.7477 327.7089 66.7477 333.9209 22.3227 364.8549 22.3227 363.3489 32.9277 343.7729 32.9277"></polygon>
                <polygon id="Fill-128" fill="#FFFFFF" points="370.8151 22.3224 382.0471 22.3224 388.3221 44.0334 400.8081 22.3224 412.0401 22.3224 405.8271 66.7474 394.5331 66.7474 396.3531 53.9474 398.2351 44.9754 397.9221 44.9114 389.9521 60.1594 382.2351 60.1594 378.4081 44.9114 378.1561 44.9754 377.5911 53.9474 375.8341 66.7474 364.6041 66.7474"></polygon>
                <polygon id="Fill-130" fill="#FFFFFF" points="427.9756 39.5157 445.9846 39.5157 444.6036 49.4927 426.5956 49.4927 425.6536 56.1437 445.2306 56.1437 443.7876 66.7477 412.8536 66.7477 419.0656 22.3227 449.9996 22.3227 448.4936 32.9277 428.9176 32.9277"></polygon>
                <path d="M207.773,101.1157 L190.047,101.1157 L189.371,105.1587 L203.024,105.1587 L202.1,111.6897 C201.208,118.2587 194.197,121.6967 187.732,121.6967 C183.7,121.6967 180.141,120.3777 178.213,118.1707 C176.788,116.5397 176.234,114.4737 176.565,112.0317 L179.389,91.3887 C180.313,84.6837 187.354,81.6287 193.505,81.6287 C198.725,81.6287 202.627,83.5187 203.942,86.6827 L204.506,88.0407 L208.319,85.7517 L207.831,84.7147 C205.743,80.2787 200.398,77.5227 193.882,77.5227 C185.582,77.5227 176.536,82.1657 175.306,91.0417 L172.482,111.6907 C172.002,115.2607 172.88,118.4407 175.018,120.8847 C177.716,123.9707 182.282,125.7397 187.544,125.7397 C195.585,125.7397 204.847,121.4517 206.181,112.0427 L207.773,101.1157 Z" id="Fill-132" fill="#FFFFFF"></path>
                <path d="M219.8694,105.1315 L230.8774,83.7905 L235.6554,105.1315 L219.8694,105.1315 Z M229.1814,78.1495 L205.3684,125.1125 L209.9164,125.1125 L217.7604,109.2375 L236.4794,109.2375 L240.1184,125.1125 L244.4114,125.1125 L233.7994,78.1495 L229.1814,78.1495 Z" id="Fill-134" fill="#FFFFFF"></path>
                <polygon id="Fill-136" fill="#FFFFFF" points="270.4901 112.2054 260.2681 78.1494 254.8951 78.1494 248.3291 125.1124 252.4601 125.1124 257.9651 85.5924 267.9251 118.0844 269.6051 118.0844 270.0091 118.0844 271.5991 118.0844 290.6151 85.4704 285.0991 125.1124 289.2291 125.1124 295.7961 78.1494 290.2821 78.1494"></polygon>
                <polygon id="Fill-138" fill="#FFFFFF" points="298.2729 125.1127 302.4039 125.1127 308.9699 78.1497 304.8389 78.1497"></polygon>
                <polygon id="Fill-140" fill="#FFFFFF" points="341.2901 117.9744 322.3681 78.1494 320.4151 78.1494 319.7461 78.1494 318.0151 78.1494 311.4491 125.1124 315.6401 125.1124 321.2241 85.7904 339.8381 125.1124 341.8721 125.1124 342.8511 125.1124 344.4431 125.1124 351.0101 78.1494 346.8791 78.1494"></polygon>
                <path d="M371.2692,105.1588 L384.9212,105.1588 L383.9952,111.6888 C383.1052,118.2598 376.0942,121.6968 369.6292,121.6968 C365.5972,121.6968 362.0382,120.3778 360.1092,118.1708 C358.6852,116.5398 358.1312,114.4738 358.4622,112.0318 L361.2862,91.3888 C362.2102,84.6838 369.2512,81.6288 375.4022,81.6288 C380.6222,81.6288 384.5242,83.5178 385.8382,86.6828 L386.4022,88.0408 L390.2142,85.7518 L389.7262,84.7138 C387.6402,80.2788 382.2952,77.5228 375.7772,77.5228 C367.4772,77.5228 358.4322,82.1658 357.2032,91.0418 L354.3792,111.6908 C353.8992,115.2608 354.7752,118.4408 356.9132,120.8848 C359.6122,123.9698 364.1782,125.7398 369.4412,125.7398 C377.4812,125.7398 386.7422,121.4518 388.0772,112.0428 L389.6682,101.1158 L371.9412,101.1158 L371.2692,105.1588 Z" id="Fill-142" fill="#FFFFFF"></path>
                <path d="M94.4214,57.4567 C94.4214,60.5097 91.9464,62.9847 88.8934,62.9847 C85.8394,62.9847 83.3644,60.5097 83.3644,57.4567 C83.3644,54.4037 85.8394,51.9287 88.8934,51.9287 C91.9464,51.9287 94.4214,54.4037 94.4214,57.4567 L94.4214,57.4567 Z M73.0674,73.9857 L105.4384,73.9857 L124.2524,55.1707 L146.1054,33.3187 L113.7334,0.9477 L91.8814,22.7997 L73.0674,41.6147 L73.0674,73.9857 Z" id="Fill-144" fill="#30A66F"></path>
                <polygon id="Fill-146" fill="#FFFFFF" points="113.8285 82.4048 64.6625 82.4048 64.6625 33.2388 32.3705 0.9478 -0.0005 33.3188 40.6815 73.9998 -0.0005 114.6818 32.3705 147.0528 73.0525 106.3708 113.7335 147.0528 146.1055 114.6818"></polygon>
                <polygon id="Fill-121" fill="#FFFFFF" points="187.4759 39.5157 205.4849 39.5157 204.1039 49.4927 186.0959 49.4927 185.1539 56.1437 204.7309 56.1437 203.2879 66.7477 172.3539 66.7477 178.5659 22.3227 209.4999 22.3227 207.9939 32.9277 188.4179 32.9277"></polygon>
                <polygon id="Fill-122" fill="#FFFFFF" points="240.2451 22.3224 253.2961 22.3224 237.7351 44.5984 247.0831 66.7474 234.0321 66.7474 228.3231 51.6264 218.6591 66.7474 205.5451 66.7474 221.1061 44.5984 211.7581 22.3224 224.8721 22.3224 230.3301 37.5074"></polygon>
                <polygon id="Fill-123" fill="#FFFFFF" points="275.7579 32.5509 271.0519 66.7479 259.6949 66.7479 264.4009 32.5509 252.4169 32.5509 253.9219 22.2609 289.2489 22.2609 287.7419 32.5509"></polygon>
            </g>
        </g>
    </g>
</svg>